<svg xmlns="http://www.w3.org/2000/svg" viewBox="0 0 651.33 530.1"><defs><style>.cls-1{fill:#f7dfc5;}.cls-2{fill:#fdfbeb;}.cls-3{fill:#f08b51;}.cls-4{fill:#e4d9d0;}.cls-5{fill:#2e4560;}.cls-6{fill:#eff4eb;}.cls-7{stroke:#f08b51;stroke-miterlimit:10;stroke-width:5px;}</style></defs><title>Asset 1</title><g id="Layer_2" data-name="Layer 2"><g id="Layer_1-2" data-name="Layer 1"><rect class="cls-1" y="446.36" width="651.33" height="83.74"/><rect class="cls-2" x="67.67" y="420.33" width="55.25" height="33.34"/><path class="cls-3" d="M113.92,380.33h9a0,0,0,0,1,0,0v40a0,0,0,0,1,0,0h-49a0,0,0,0,1,0,0v0A40,40,0,0,1,113.92,380.33Z"/><rect class="cls-2" x="122.92" y="280.83" width="196.83" height="172.84"/><rect class="cls-4" x="122.92" y="280.83" width="196.83" height="27"/><rect class="cls-4" x="167.83" y="420.19" width="103.67" height="33.34"/><path class="cls-3" d="M224.75,380.22v0H214.58v0a40,40,0,0,0-38.83,40h87.83A40,40,0,0,0,224.75,380.22Z"/><rect class="cls-2" x="319.23" y="371.83" width="241.19" height="81.84"/><rect class="cls-3" x="319.23" y="358.08" width="258.69" height="13.75"/><rect class="cls-2" x="560.42" y="371.83" width="90.92" height="81.84"/><path class="cls-3" d="M612.5,331.86v0H602.33v0a40,40,0,0,0-38.83,40h87.83A40,40,0,0,0,612.5,331.86Z"/><circle class="cls-5" cx="498.69" cy="401.45" r="12.03"/><rect class="cls-6" x="464.75" y="220.16" width="56.33" height="233.51"/><polygon class="cls-3" points="507.75 213.29 478.08 213.29 464.75 220.16 521.08 220.16 507.75 213.29"/><line class="cls-7" x1="492.92" y1="213.29" x2="492.92" y2="144.5"/><rect class="cls-5" x="484.42" y="248.5" width="18.33" height="55"/><rect class="cls-5" x="484.42" y="341.08" width="18.33" height="55"/><path class="cls-3" d="M314.32,281.65s-1.45-146-77.06-205l-31.86-.55c-75.61,59-77.06,205-77.06,205Z"/><polygon class="cls-2" points="241.26 77.29 201.4 77.29 198.79 57.84 243.88 57.84 241.26 77.29"/><polygon class="cls-2" points="234.03 57.88 208.63 57.88 219.39 0 223.28 0 234.03 57.88"/><rect class="cls-5" x="203.38" y="324.03" width="30.92" height="30.92"/><rect class="cls-5" x="122.92" y="324.03" width="15.46" height="30.92"/><rect class="cls-5" x="304.39" y="324.03" width="15.46" height="30.92"/><rect class="cls-5" x="342.04" y="388.11" width="24.45" height="24.45"/><rect class="cls-5" x="416.38" y="389.11" width="24.45" height="24.45"/><rect class="cls-5" x="559.19" y="390.69" width="24.45" height="24.45"/><rect class="cls-5" x="639.11" y="391.11" width="12.22" height="24.45"/></g></g></svg>