<svg xmlns="http://www.w3.org/2000/svg" xmlns:xlink="http://www.w3.org/1999/xlink" viewBox="0 0 726.92 79.49"><defs><style>.cls-1{fill:none;}.cls-2{fill:#98c168;}.cls-3{fill:#fff2e7;}.cls-4{fill:#2e4560;}.cls-5{fill:#ea7c53;}.cls-6{fill:#fffbfc;}.cls-7{fill:#e47540;}.cls-8{clip-path:url(#clip-path);}</style><clipPath id="clip-path" transform="translate(0 -4.01)"><rect class="cls-1" x="24.33" width="238.17" height="109.84"/></clipPath></defs><title>Asset 5</title><g id="Layer_2" data-name="Layer 2"><g id="Layer_1-2" data-name="Layer 1"><path class="cls-2" d="M4.36,30.21c-4.23-7.59,3.35-5.82,3.35-5.82,2.65-5.82,5.64-3.18,5.64-3.18,4.06-1.23,5.47.88,5.47.88,6.88-1.06,5.29,3.32,5.29,3.32,5.47,1.45,1.94,4.8,1.94,4.8Z" transform="translate(0 -4.01)"/><path class="cls-2" d="M19.68,27.31C15.45,19.73,23,21.49,23,21.49c2.65-5.82,5.64-3.18,5.64-3.18,4.06-1.23,5.47.88,5.47.88,6.88-1.06,5.29,3.32,5.29,3.32,5.47,1.45,1.94,4.8,1.94,4.8Z" transform="translate(0 -4.01)"/><path class="cls-2" d="M23.6,30.21c-4.23-7.59,3.35-5.82,3.35-5.82,2.65-5.82,5.64-3.18,5.64-3.18,4.06-1.23,5.47.88,5.47.88,6.88-1.06,5.29,3.32,5.29,3.32,5.47,1.45,1.94,4.8,1.94,4.8Z" transform="translate(0 -4.01)"/><rect class="cls-3" x="452.94" y="10.1" width="46.33" height="69.39"/><rect class="cls-3" x="444.81" y="25.25" width="47.43" height="54.24"/><rect class="cls-4" x="465.12" y="38.98" width="6.81" height="26.79"/><polygon class="cls-5" points="507.83 10.1 444.81 10.1 476.32 0 476.32 0 507.83 10.1"/><rect class="cls-4" x="476.32" y="10.1" width="13.39" height="15.15"/><rect class="cls-6" x="477.58" y="35.37" width="249.33" height="44"/><polygon class="cls-7" points="525.58 17.7 678.92 17.7 726.92 35.37 477.58 35.37 525.58 17.7"/><rect class="cls-7" x="492.92" y="44.5" width="14.33" height="18.67"/><rect class="cls-7" x="595.75" y="44.5" width="14.33" height="18.67"/><rect class="cls-7" x="647.17" y="44.5" width="14.33" height="18.67"/><rect class="cls-7" x="544.33" y="44.5" width="14.33" height="18.67"/><rect class="cls-7" x="698.58" y="44.5" width="14.33" height="18.67"/><g class="cls-8"><rect class="cls-6" y="33.96" width="249.33" height="44"/><polygon class="cls-7" points="48 16.29 201.33 16.29 249.33 33.96 0 33.96 48 16.29"/><rect class="cls-7" x="15.33" y="43.09" width="14.33" height="18.67"/><rect class="cls-7" x="118.17" y="43.09" width="14.33" height="18.67"/><rect class="cls-7" x="169.58" y="43.09" width="14.33" height="18.67"/><rect class="cls-7" x="66.75" y="43.09" width="14.33" height="18.67"/><rect class="cls-7" x="221" y="43.09" width="14.33" height="18.67"/></g></g></g></svg>