<svg xmlns="http://www.w3.org/2000/svg" viewBox="0 0 826.3 158.85"><defs><style>.cls-1{fill:#e9bf9f;}.cls-2{fill:#4f373b;}.cls-3{fill:#c07f59;}.cls-4{fill:#8e5f42;}.cls-5{fill:#e3b286;}.cls-6{fill:#d0c3bc;}.cls-7{fill:#989eaf;}.cls-8{fill:#c4a390;}.cls-9{fill:#e0c1ab;}.cls-10{fill:#98c168;}</style></defs><title>Asset 4</title><g id="Layer_2" data-name="Layer 2"><g id="Layer_1-2" data-name="Layer 1"><rect class="cls-1" x="534.8" y="17.67" width="32" height="124.33"/><path class="cls-2" d="M550.8,32h0A6.17,6.17,0,0,1,557,38.17V86.33a0,0,0,0,1,0,0H544.64a0,0,0,0,1,0,0V38.17A6.17,6.17,0,0,1,550.8,32Z"/><polygon class="cls-3" points="566.8 0 566.8 5.56 561.24 5.56 561.24 0 553.58 0 553.58 5.56 548.02 5.56 548.02 0 540.37 0 540.37 5.56 534.8 5.56 534.8 0 529.8 0 529.8 17.67 534.81 22.67 566.8 22.67 571.8 17.67 571.8 0 566.8 0"/><rect class="cls-4" x="815.3" y="141.67" width="5.17" height="17"/><rect class="cls-4" x="742.18" y="141.49" width="5.17" height="17"/><rect class="cls-4" x="778.74" y="141.85" width="5.17" height="17"/><rect class="cls-4" x="729.37" y="135.9" width="96.93" height="5.96"/><rect class="cls-5" x="566.37" y="115.52" width="163" height="40.75"/><rect class="cls-5" x="566.37" y="105.27" width="9" height="10.25"/><rect class="cls-5" x="720.37" y="105.27" width="9" height="10.25"/><rect class="cls-5" x="703.26" y="105.27" width="9" height="10.25"/><rect class="cls-5" x="686.15" y="105.27" width="9" height="10.25"/><rect class="cls-5" x="669.04" y="105.27" width="9" height="10.25"/><rect class="cls-5" x="651.93" y="105.27" width="9" height="10.25"/><rect class="cls-5" x="634.82" y="105.27" width="9" height="10.25"/><rect class="cls-5" x="617.71" y="105.27" width="9" height="10.25"/><rect class="cls-5" x="600.59" y="105.27" width="9" height="10.25"/><rect class="cls-5" x="583.48" y="105.27" width="9" height="10.25"/><rect class="cls-6" x="566.37" y="121.86" width="163" height="9"/><rect class="cls-7" x="566.37" y="121.86" width="9" height="9" rx="2.87" ry="2.87"/><rect class="cls-7" x="720.37" y="121.86" width="9" height="9" rx="2.87" ry="2.87"/><rect class="cls-7" x="703.26" y="121.86" width="9" height="9" rx="2.87" ry="2.87"/><rect class="cls-7" x="686.15" y="121.86" width="9" height="9" rx="2.87" ry="2.87"/><rect class="cls-7" x="669.04" y="121.86" width="9" height="9" rx="2.87" ry="2.87"/><rect class="cls-7" x="651.93" y="121.86" width="9" height="9" rx="2.87" ry="2.87"/><rect class="cls-7" x="634.82" y="121.86" width="9" height="9" rx="2.87" ry="2.87"/><rect class="cls-7" x="617.71" y="121.86" width="9" height="9" rx="2.87" ry="2.87"/><rect class="cls-7" x="600.59" y="121.86" width="9" height="9" rx="2.87" ry="2.87"/><rect class="cls-7" x="583.48" y="121.86" width="9" height="9" rx="2.87" ry="2.87"/><rect class="cls-8" x="344.12" y="115.27" width="7" height="41.18"/><path class="cls-9" d="M326.37,50.19v107.5h9.5V102.44a29,29,0,0,1,58,0v55.25h9.5V50.19Z"/><rect class="cls-8" x="319.12" y="58.94" width="91.5" height="8"/><rect class="cls-8" x="335.87" y="109.69" width="58" height="5.75"/><rect class="cls-8" x="377.37" y="115.27" width="7" height="41.18"/><polygon class="cls-8" points="364.87 102.07 374.94 109.69 384.37 109.69 364.25 94.44 344.12 109.69 354.81 109.69 364.87 102.07"/><rect class="cls-5" x="163.39" y="115.65" width="163" height="40.75"/><rect class="cls-5" x="163.39" y="105.4" width="9" height="10.25"/><rect class="cls-5" x="317.39" y="105.4" width="9" height="10.25"/><rect class="cls-5" x="300.27" y="105.4" width="9" height="10.25"/><rect class="cls-5" x="283.16" y="105.4" width="9" height="10.25"/><rect class="cls-5" x="266.05" y="105.4" width="9" height="10.25"/><rect class="cls-5" x="248.94" y="105.4" width="9" height="10.25"/><rect class="cls-5" x="231.83" y="105.4" width="9" height="10.25"/><rect class="cls-5" x="214.72" y="105.4" width="9" height="10.25"/><rect class="cls-5" x="197.61" y="105.4" width="9" height="10.25"/><rect class="cls-5" x="180.5" y="105.4" width="9" height="10.25"/><rect class="cls-6" x="163.39" y="121.98" width="163" height="9"/><rect class="cls-7" x="163.39" y="121.98" width="9" height="9" rx="2.87" ry="2.87"/><rect class="cls-7" x="317.39" y="121.98" width="9" height="9" rx="2.87" ry="2.87"/><rect class="cls-7" x="300.27" y="121.98" width="9" height="9" rx="2.87" ry="2.87"/><rect class="cls-7" x="283.16" y="121.98" width="9" height="9" rx="2.87" ry="2.87"/><rect class="cls-7" x="266.05" y="121.98" width="9" height="9" rx="2.87" ry="2.87"/><rect class="cls-7" x="248.94" y="121.98" width="9" height="9" rx="2.87" ry="2.87"/><rect class="cls-7" x="231.83" y="121.98" width="9" height="9" rx="2.87" ry="2.87"/><rect class="cls-7" x="214.72" y="121.98" width="9" height="9" rx="2.87" ry="2.87"/><rect class="cls-7" x="197.61" y="121.98" width="9" height="9" rx="2.87" ry="2.87"/><rect class="cls-7" x="180.5" y="121.98" width="9" height="9" rx="2.87" ry="2.87"/><rect class="cls-5" x="0.39" y="115.56" width="163" height="40.75"/><rect class="cls-5" x="0.39" y="105.31" width="9" height="10.25"/><rect class="cls-5" x="154.39" y="105.31" width="9" height="10.25"/><rect class="cls-5" x="137.27" y="105.31" width="9" height="10.25"/><rect class="cls-5" x="120.16" y="105.31" width="9" height="10.25"/><rect class="cls-5" x="103.05" y="105.31" width="9" height="10.25"/><rect class="cls-5" x="85.94" y="105.31" width="9" height="10.25"/><rect class="cls-5" x="68.83" y="105.31" width="9" height="10.25"/><rect class="cls-5" x="51.72" y="105.31" width="9" height="10.25"/><rect class="cls-5" x="34.61" y="105.31" width="9" height="10.25"/><rect class="cls-5" x="17.5" y="105.31" width="9" height="10.25"/><rect class="cls-6" x="0.39" y="121.9" width="163" height="9"/><rect class="cls-7" x="0.39" y="121.9" width="9" height="9" rx="2.87" ry="2.87"/><rect class="cls-7" x="154.39" y="121.9" width="9" height="9" rx="2.87" ry="2.87"/><rect class="cls-7" x="137.27" y="121.9" width="9" height="9" rx="2.87" ry="2.87"/><rect class="cls-7" x="120.16" y="121.9" width="9" height="9" rx="2.87" ry="2.87"/><rect class="cls-7" x="103.05" y="121.9" width="9" height="9" rx="2.87" ry="2.87"/><rect class="cls-7" x="85.94" y="121.9" width="9" height="9" rx="2.87" ry="2.87"/><rect class="cls-7" x="68.83" y="121.9" width="9" height="9" rx="2.87" ry="2.87"/><rect class="cls-7" x="51.72" y="121.9" width="9" height="9" rx="2.87" ry="2.87"/><rect class="cls-7" x="34.61" y="121.9" width="9" height="9" rx="2.87" ry="2.87"/><rect class="cls-7" x="17.5" y="121.9" width="9" height="9" rx="2.87" ry="2.87"/><rect class="cls-5" x="403.37" y="115.44" width="163" height="40.75"/><rect class="cls-5" x="403.37" y="105.19" width="9" height="10.25"/><rect class="cls-5" x="557.37" y="105.19" width="9" height="10.25"/><rect class="cls-5" x="540.26" y="105.19" width="9" height="10.25"/><rect class="cls-5" x="523.15" y="105.19" width="9" height="10.25"/><rect class="cls-5" x="506.04" y="105.19" width="9" height="10.25"/><rect class="cls-5" x="488.93" y="105.19" width="9" height="10.25"/><rect class="cls-5" x="471.82" y="105.19" width="9" height="10.25"/><rect class="cls-5" x="454.71" y="105.19" width="9" height="10.25"/><rect class="cls-5" x="437.59" y="105.19" width="9" height="10.25"/><rect class="cls-5" x="420.48" y="105.19" width="9" height="10.25"/><rect class="cls-6" x="403.37" y="121.77" width="163" height="9"/><rect class="cls-7" x="403.37" y="121.77" width="9" height="9" rx="2.87" ry="2.87"/><rect class="cls-7" x="557.37" y="121.77" width="9" height="9" rx="2.87" ry="2.87"/><rect class="cls-7" x="540.26" y="121.77" width="9" height="9" rx="2.87" ry="2.87"/><rect class="cls-7" x="523.15" y="121.77" width="9" height="9" rx="2.87" ry="2.87"/><rect class="cls-7" x="506.04" y="121.77" width="9" height="9" rx="2.87" ry="2.87"/><rect class="cls-7" x="488.93" y="121.77" width="9" height="9" rx="2.87" ry="2.87"/><rect class="cls-7" x="471.82" y="121.77" width="9" height="9" rx="2.87" ry="2.87"/><rect class="cls-7" x="454.71" y="121.77" width="9" height="9" rx="2.87" ry="2.87"/><rect class="cls-7" x="437.59" y="121.77" width="9" height="9" rx="2.87" ry="2.87"/><rect class="cls-7" x="420.48" y="121.77" width="9" height="9" rx="2.87" ry="2.87"/><path class="cls-10" d="M2.43,156.47c-8-14.33,6.33-11,6.33-11,5-11,10.67-6,10.67-6,7.67-2.33,10.33,1.67,10.33,1.67,13-2,10,6.27,10,6.27,10.33,2.73,3.67,9.07,3.67,9.07Z"/><path class="cls-10" d="M31.38,151c-8-14.33,6.33-11,6.33-11,5-11,10.67-6,10.67-6,7.67-2.33,10.33,1.67,10.33,1.67,13-2,10,6.27,10,6.27C79,144.66,72.38,151,72.38,151Z"/><path class="cls-10" d="M38.77,156.47c-8-14.33,6.33-11,6.33-11,5-11,10.67-6,10.67-6,7.67-2.33,10.33,1.67,10.33,1.67,13-2,10,6.27,10,6.27,10.33,2.73,3.67,9.07,3.67,9.07Z"/><path class="cls-10" d="M545,156.47c-8-14.33,6.33-11,6.33-11,5-11,10.67-6,10.67-6,7.67-2.33,10.33,1.67,10.33,1.67,13-2,10,6.27,10,6.27,10.33,2.73,3.67,9.07,3.67,9.07Z"/><path class="cls-10" d="M573.92,151c-8-14.33,6.33-11,6.33-11,5-11,10.67-6,10.67-6,7.67-2.33,10.33,1.67,10.33,1.67,13-2,10,6.27,10,6.27,10.33,2.73,3.67,9.07,3.67,9.07Z"/><path class="cls-10" d="M581.31,156.47c-8-14.33,6.33-11,6.33-11,5-11,10.67-6,10.67-6,7.67-2.33,10.33,1.67,10.33,1.67,13-2,10,6.27,10,6.27,10.33,2.73,3.67,9.07,3.67,9.07Z"/><path class="cls-10" d="M236.54,156.39c-8-14.33,6.33-11,6.33-11,5-11,10.67-6,10.67-6,7.67-2.33,10.33,1.67,10.33,1.67,13-2,10,6.27,10,6.27,10.33,2.73,3.67,9.07,3.67,9.07Z"/><path class="cls-10" d="M265.48,150.91c-8-14.33,6.33-11,6.33-11,5-11,10.67-6,10.67-6,7.67-2.33,10.33,1.67,10.33,1.67,13-2,10,6.27,10,6.27,10.33,2.73,3.67,9.07,3.67,9.07Z"/><path class="cls-10" d="M272.88,156.39c-8-14.33,6.33-11,6.33-11,5-11,10.67-6,10.67-6,7.67-2.33,10.33,1.67,10.33,1.67,13-2,10,6.27,10,6.27,10.33,2.73,3.67,9.07,3.67,9.07Z"/></g></g></svg>