<svg xmlns="http://www.w3.org/2000/svg" xmlns:xlink="http://www.w3.org/1999/xlink" viewBox="0 0 743.9 111.05"><defs><style>.cls-1{fill:none;}.cls-2{fill:#fffaf5;}.cls-3{fill:#954235;}.cls-4{fill:#2e4560;}.cls-5{clip-path:url(#clip-path);}.cls-6{fill:#fffbfc;}.cls-7{fill:#e47540;}.cls-8{clip-path:url(#clip-path-2);}.cls-9{fill:#53687c;}.cls-10{fill:#98c168;}.cls-11{fill:#fff2e7;}.cls-12{fill:#ea7c53;}.cls-13{clip-path:url(#clip-path-3);}</style><clipPath id="clip-path" transform="translate(0 -3.38)"><rect class="cls-1" x="103.54" width="51.42" height="23.71"/></clipPath><clipPath id="clip-path-2" transform="translate(0 -3.38)"><rect class="cls-1" x="41.32" y="9.97" width="42.55" height="54.3"/></clipPath><clipPath id="clip-path-3" transform="translate(0 -3.38)"><rect class="cls-1" x="41.32" y="30.93" width="238.17" height="109.84"/></clipPath></defs><title>Asset 6</title><g id="Layer_2" data-name="Layer 2"><g id="Layer_1-2" data-name="Layer 1"><rect class="cls-2" x="41.38" y="8.05" width="27.9" height="8.9"/><polygon class="cls-3" points="62.39 8.05 40.49 8.05 43.28 5.9 62.39 5.9 62.39 8.05"/><rect class="cls-2" x="62.39" y="0.84" width="6.9" height="7.21"/><rect class="cls-3" x="61.81" width="8.05" height="0.84"/><rect class="cls-4" x="44.29" y="8.05" width="4.45" height="4.45"/><rect class="cls-4" x="57.87" y="10.52" width="2.81" height="2.81"/><rect class="cls-4" x="66.14" y="4.05" width="1.84" height="1.84"/><g class="cls-5"><rect class="cls-6" x="98.29" y="4.81" width="53.83" height="9.5"/><polygon class="cls-7" points="108.65 1 141.75 1 152.11 4.82 98.29 4.82 108.65 1"/><rect class="cls-7" x="101.6" y="6.79" width="3.09" height="4.03"/><rect class="cls-7" x="123.8" y="6.79" width="3.09" height="4.03"/><rect class="cls-7" x="134.9" y="6.79" width="3.09" height="4.03"/><rect class="cls-7" x="112.7" y="6.79" width="3.09" height="4.03"/><rect class="cls-7" x="146" y="6.79" width="3.09" height="4.03"/></g><g class="cls-8"><rect class="cls-6" y="18.72" width="79.66" height="14.06"/><polygon class="cls-7" points="15.34 13.07 64.33 13.07 79.66 18.72 0 18.72 15.34 13.07"/><rect class="cls-7" x="4.9" y="21.64" width="4.58" height="5.96"/><rect class="cls-9" x="37.75" y="21.64" width="4.58" height="5.96"/><rect class="cls-9" x="54.18" y="21.64" width="4.58" height="5.96"/><rect class="cls-7" x="21.33" y="21.64" width="4.58" height="5.96"/><rect class="cls-9" x="70.61" y="21.64" width="4.58" height="5.96"/><rect class="cls-6" y="32.78" width="79.66" height="14.06"/><rect class="cls-7" x="4.9" y="35.7" width="4.58" height="5.96"/><rect class="cls-9" x="37.75" y="35.7" width="4.58" height="5.96"/><rect class="cls-9" x="54.18" y="35.7" width="4.58" height="5.96"/><rect class="cls-7" x="21.33" y="35.7" width="4.58" height="5.96"/><rect class="cls-9" x="70.61" y="35.7" width="4.58" height="5.96"/><rect class="cls-6" y="46.84" width="79.66" height="14.06"/><rect class="cls-7" x="4.9" y="49.75" width="4.58" height="5.96"/><rect class="cls-9" x="37.75" y="49.75" width="4.58" height="5.96"/><rect class="cls-9" x="54.18" y="49.75" width="4.58" height="5.96"/><rect class="cls-7" x="21.33" y="49.75" width="4.58" height="5.96"/><rect class="cls-9" x="70.61" y="49.75" width="4.58" height="5.96"/></g><path class="cls-10" d="M21.35,61.14c-4.23-7.59,3.35-5.82,3.35-5.82,2.65-5.82,5.64-3.18,5.64-3.18,4.06-1.23,5.47.88,5.47.88,6.88-1.06,5.29,3.32,5.29,3.32,5.47,1.45,1.94,4.8,1.94,4.8Z" transform="translate(0 -3.38)"/><path class="cls-10" d="M36.67,58.25C32.44,50.66,40,52.42,40,52.42c2.65-5.82,5.64-3.18,5.64-3.18,4.06-1.23,5.47.88,5.47.88,6.88-1.06,5.29,3.32,5.29,3.32,5.47,1.45,1.94,4.8,1.94,4.8Z" transform="translate(0 -3.38)"/><path class="cls-10" d="M40.58,61.14c-4.23-7.59,3.35-5.82,3.35-5.82,2.65-5.82,5.64-3.18,5.64-3.18C53.64,50.91,55,53,55,53c6.88-1.06,5.29,3.32,5.29,3.32,5.47,1.45,1.94,4.8,1.94,4.8Z" transform="translate(0 -3.38)"/><rect class="cls-11" x="469.92" y="41.66" width="46.33" height="69.39"/><rect class="cls-11" x="461.8" y="56.81" width="47.43" height="54.24"/><rect class="cls-4" x="482.11" y="70.53" width="6.81" height="26.79"/><polygon class="cls-12" points="524.82 41.66 461.8 41.66 493.31 31.56 493.31 31.56 524.82 41.66"/><rect class="cls-4" x="493.31" y="41.66" width="13.39" height="15.15"/><rect class="cls-6" x="494.57" y="66.93" width="249.33" height="44"/><polygon class="cls-7" points="542.57 49.26 695.9 49.26 743.9 66.93 494.57 66.93 542.57 49.26"/><rect class="cls-7" x="509.9" y="76.06" width="14.33" height="18.67"/><rect class="cls-7" x="612.74" y="76.06" width="14.33" height="18.67"/><rect class="cls-7" x="664.15" y="76.06" width="14.33" height="18.67"/><rect class="cls-7" x="561.32" y="76.06" width="14.33" height="18.67"/><rect class="cls-7" x="715.57" y="76.06" width="14.33" height="18.67"/><g class="cls-13"><rect class="cls-6" x="16.99" y="65.52" width="249.33" height="44"/><polygon class="cls-7" points="64.99 47.85 218.32 47.85 266.32 65.52 16.99 65.52 64.99 47.85"/><rect class="cls-7" x="32.32" y="74.65" width="14.33" height="18.67"/><rect class="cls-7" x="135.15" y="74.65" width="14.33" height="18.67"/><rect class="cls-7" x="186.57" y="74.65" width="14.33" height="18.67"/><rect class="cls-7" x="83.74" y="74.65" width="14.33" height="18.67"/><rect class="cls-7" x="237.99" y="74.65" width="14.33" height="18.67"/></g></g></g></svg>