<svg id="Layer_1" data-name="Layer 1" xmlns="http://www.w3.org/2000/svg" viewBox="0 0 49.74 104.24"><defs><style>.cls-1{fill:#231f20;}</style></defs><title>darkpenguin</title><path class="cls-1" d="M13.07,11.68c.7,1.86-2.58,5.05-5.8,12.16L43.34,38.74C40.59,22.43,34,10.55,31.42,7.1,27.28,1.51,21.91-1.13,16.56.45S13.11,2.15,0,.64c0,0,5.6,3.24,8,4.47S12.24,9.5,13.07,11.68Z"/><path class="cls-1" d="M42.1,73.31a81.51,81.51,0,0,0,2.38-16.18L4.33,64A86.35,86.35,0,0,0,7,78.61c2.43,8.09,5.51,11.13,8.08,12s3.86,5.19,3.26,8.25-7.88.35-11,3.09,5.08,2.2,37.84,2.24C59.79,104.23,33.81,106.19,42.1,73.31Z"/></svg>