<svg id="Layer_1" data-name="Layer 1" xmlns="http://www.w3.org/2000/svg" viewBox="0 0 96.52 219.34"><defs><style>.cls-1{fill:#18191b;}.cls-2{fill:#2b2d31;}.cls-3{fill:#3e4047;}.cls-4{fill:#474a52;}.cls-5{fill:#555962;}.cls-6{fill:#ffd2a6;}.cls-7{fill:#e4e5e7;}.cls-8{fill:#d3d5d9;}.cls-9{fill:#f4f5f6;}.cls-10{fill:#c3c5cb;}.cls-11{fill:#b3b6bd;}.cls-12{fill:#646873;}</style></defs><title>penguin</title><polygon class="cls-1" points="36.59 11.24 36.59 11.24 47.42 26.01 27.67 24.35 23.71 13.92 36.59 11.24"/><polygon class="cls-2" points="51.94 14.7 39.13 8.31 36.59 11.24 47.42 26.01 51.94 14.7"/><polygon class="cls-3" points="70.97 19.69 55.54 3.09 40.99 0 39.13 8.31 51.94 14.7 70.97 19.69"/><polygon class="cls-3" points="36.69 11.24 0 1.84 0.12 1.09 39.13 8.31 36.69 11.24"/><polygon class="cls-4" points="0.12 1.09 22.84 2.84 39.13 8.31 0.12 1.09"/><polygon class="cls-5" points="40.99 0 30.12 1.25 22.84 2.84 39.13 8.31 40.99 0"/><polygon class="cls-6" points="70.78 19.52 51.94 14.7 47.52 26.01 60.23 30.38 70.78 19.52"/><polygon class="cls-6" points="27.67 24.35 47.52 26.01 17.72 40.33 27.67 24.35"/><polygon class="cls-7" points="17.72 40.33 5.96 77.56 50.28 65.95 47.52 26.01 17.72 40.33"/><polygon class="cls-3" points="70.78 19.52 84.05 41.08 70.78 70.78 60.23 30.38 70.78 19.52"/><polygon class="cls-4" points="50.28 65.95 70.78 70.78 60.23 30.38 47.52 26.01 50.28 65.95"/><polygon class="cls-8" points="5.96 77.56 7.17 129.72 44.25 115.1 28.95 71.54 5.96 77.56"/><polygon class="cls-9" points="50.28 65.95 56.01 82.54 44.25 115.1 28.95 71.54 50.28 65.95"/><polygon class="cls-5" points="70.78 70.78 78.02 103.04 70.78 124.29 44.25 115.1 56.01 82.54 50.28 65.95 70.78 70.78"/><polygon class="cls-4" points="70.78 124.29 65.2 138.76 44.25 114.34 70.78 124.29"/><polygon class="cls-3" points="64 169.36 49.67 156.4 44.9 115.1 65.2 138.76 64 169.36"/><polygon class="cls-10" points="7.17 129.72 19.53 186.4 49.67 156.4 44.25 114.34 7.17 129.72"/><polygon class="cls-11" points="19.53 186.4 36.75 192.39 64 169.36 49.67 156.4 19.53 186.4"/><polygon class="cls-7" points="64 169.36 69.35 170.12 60.45 190.39 36.75 192.39 64 169.36"/><polygon class="cls-2" points="84.05 41.08 96.52 92.91 78.02 103.04 70.78 70.78 84.05 41.08"/><polygon class="cls-2" points="69.35 170.12 88.42 124.29 70.78 124.29 65.2 138.76 69.35 170.12 69.35 170.12"/><polygon class="cls-3" points="96.52 92.91 88.42 124.29 70.78 124.29 78.02 103.04 96.52 92.91"/><polygon class="cls-2" points="88.42 124.29 95.2 131.45 96.52 92.91 88.42 124.29"/><polygon class="cls-1" points="69.35 170.12 86.61 162.2 95.2 131.45 88.42 124.29 69.35 170.12"/><polygon class="cls-8" points="36.75 192.39 38.84 208.1 50.77 218.39 60.45 190.39 36.75 192.39"/><polygon class="cls-10" points="64 169.36 65.2 138.76 69.35 170.12 64 169.36"/><polygon class="cls-2" points="86.61 162.2 76.81 198.38 60.45 190.39 69.35 170.12 86.61 162.2"/><polygon class="cls-4" points="50.77 218.39 61.13 212.63 76.81 198.38 60.45 190.39 50.77 218.39"/><polygon class="cls-12" points="76.81 198.38 86.61 209.91 50.77 218.39 76.81 198.38"/><polygon class="cls-3" points="50.77 218.39 95.35 219.34 86.61 209.91 50.77 218.39"/><polygon class="cls-2" points="38.84 208.1 26.54 205.09 15.61 214.63 25.03 214.21 38.84 208.1"/><polygon class="cls-1" points="50.77 218.39 23.9 219.34 25.03 214.21 38.84 208.1 50.77 218.39"/><polygon class="cls-2" points="0 1.84 23.71 13.92 36.59 11.24 0 1.84"/></svg>