<svg xmlns="http://www.w3.org/2000/svg" viewBox="0 0 287.75 188.88"><defs><style>.cls-1,.cls-3,.cls-5,.cls-6,.cls-7,.cls-8{fill:#9b7253;}.cls-1,.cls-3,.cls-5,.cls-6,.cls-8{stroke:#8e5f42;}.cls-1,.cls-3,.cls-5,.cls-6,.cls-8,.cls-9{stroke-miterlimit:10;}.cls-1,.cls-9{stroke-width:3.96px;}.cls-2,.cls-9{fill:#8e5f42;}.cls-3{stroke-width:2.93px;}.cls-4{fill:#ffebe1;}.cls-5{stroke-width:4.33px;}.cls-6{stroke-width:3.2px;}.cls-8{stroke-linecap:round;stroke-width:2.83px;}.cls-9{stroke:#9b7253;}.cls-10{fill:#fff7f3;}</style></defs><title>Asset 10</title><g id="Layer_2" data-name="Layer 2"><g id="Layer_1-2" data-name="Layer 1"><line class="cls-1" x1="95.45" y1="165.87" x2="95.45" y2="21.69"/><rect class="cls-2" x="89.41" y="87.94" width="12.08" height="20.38" transform="translate(190.9 196.27) rotate(-180)"/><line class="cls-1" x1="111.87" y1="72.09" x2="79.03" y2="72.09"/><line class="cls-3" x1="104.41" y1="51.33" x2="86.49" y2="51.33"/><rect class="cls-4" x="64.93" y="41.88" width="60.29" height="67.37" transform="translate(190.15 151.13) rotate(-180)"/><line class="cls-1" x1="248.31" y1="160.03" x2="248.31" y2="15.85"/><rect class="cls-2" x="242.27" y="82.11" width="12.08" height="20.38" transform="translate(496.62 184.59) rotate(-180)"/><line class="cls-1" x1="264.73" y1="66.25" x2="231.89" y2="66.25"/><line class="cls-3" x1="257.27" y1="45.49" x2="239.35" y2="45.49"/><line class="cls-5" x1="169.07" y1="157.52" x2="169.07"/><rect class="cls-2" x="162.48" y="72.38" width="13.2" height="22.27" transform="translate(338.15 167.03) rotate(-180)"/><line class="cls-5" x1="187.01" y1="55.06" x2="151.14" y2="55.06"/><line class="cls-6" x1="178.87" y1="32.38" x2="159.28" y2="32.38"/><path class="cls-7" d="M74.88,186.73s-5.66-15.29-15.57-24.34a39.14,39.14,0,0,1-11.89-19.53c11,5.94,144.09,11,240.33,3.11,0,0-2,21.23-15.57,34.82S74.88,186.73,74.88,186.73Z"/><path class="cls-8" d="M285.59,156.52s-112.12,10.38-233-2.06"/><line class="cls-9" x1="55.02" y1="147.41" x2="0.67" y2="127.79"/><rect class="cls-10" x="131.56" y="9.82" width="80.64" height="112.87" transform="translate(343.76 132.51) rotate(-180)"/><rect class="cls-4" x="218.16" y="32.38" width="60.29" height="90.3" transform="translate(496.62 155.07) rotate(-180)"/></g></g></svg>