<svg xmlns="http://www.w3.org/2000/svg" xmlns:xlink="http://www.w3.org/1999/xlink" viewBox="0 0 189.4 147.39"><defs><style>.cls-1,.cls-3{fill:none;}.cls-2{fill:#ffece3;}.cls-3{stroke:#8e5f42;stroke-miterlimit:10;stroke-width:2.07px;}.cls-4{fill:#eebdaa;}.cls-5{clip-path:url(#clip-path);}.cls-6{fill:#8e5f42;}</style><clipPath id="clip-path"><path class="cls-1" d="M0,128.1H182.86l-10.33,19.28H28.58s-8.61,0-13.43-9.64S0,128.1,0,128.1Z"/></clipPath></defs><title>Asset 9</title><g id="Layer_2" data-name="Layer 2"><g id="Layer_1-2" data-name="Layer 1"><polygon class="cls-2" points="98.94 27.5 153.93 3.96 153.93 114.16 93.15 114.16 98.94 27.5"/><polygon class="cls-2" points="26.63 27.5 81.61 3.96 81.61 114.16 20.83 114.16 26.63 27.5"/><line class="cls-3" x1="81.61" y1="131.72" x2="81.61"/><line class="cls-3" x1="153.93" y1="131.72" x2="153.93"/><rect class="cls-4" y="125.35" width="189.4" height="2.75"/><line class="cls-3" x1="81.61" y1="114.16" x2="20.83" y2="114.16"/><line class="cls-3" x1="153.93" y1="114.16" x2="93.15" y2="114.16"/><g class="cls-5"><path class="cls-6" d="M0,128.1H182.86l-10.33,19.28H28.58s-8.61,0-13.43-9.64S0,128.1,0,128.1Z"/><rect class="cls-4" x="14.08" y="136.37" width="164.36" height="2.75"/></g></g></g></svg>