<svg id="Layer_1" data-name="Layer 1" xmlns="http://www.w3.org/2000/svg" xmlns:xlink="http://www.w3.org/1999/xlink" viewBox="0 0 47.09 73.8"><defs><style>.cls-1{fill:none;}.cls-2{fill:#3e4047;}.cls-3{clip-path:url(#clip-path);}.cls-4{fill:#474a52;}.cls-5{fill:#fff;}.cls-6{clip-path:url(#clip-path-2);}.cls-7{fill:#ffe3ca;}.cls-8{fill:#d3b097;}</style><clipPath id="clip-path" transform="translate(2.67 -1.17)"><rect class="cls-1" x="10.09" y="1.17" width="34.33" height="68.53" rx="13.68" ry="13.68"/></clipPath><clipPath id="clip-path-2" transform="translate(2.67 -1.17)"><polygon class="cls-1" points="0.83 19.4 15.48 14.12 15.48 24.69 0.83 19.4"/></clipPath></defs><title>cheerpenguin</title><polygon class="cls-2" points="31.42 60.77 18.4 73.8 31.42 73.8 31.42 60.77"/><g class="cls-3"><rect class="cls-4" x="12.76" width="34.33" height="68.53" rx="13.68" ry="13.68"/><circle class="cls-5" cx="14.51" cy="41.67" r="14.51"/></g><circle class="cls-5" cx="25.86" cy="8.27" r="0.94"/><polygon class="cls-4" points="37.77 60.34 24.3 73.8 37.77 73.8 37.77 60.34"/><g class="cls-6"><polygon class="cls-7" points="3.5 18.24 18.14 12.95 18.14 23.52 3.5 18.24"/><polygon class="cls-8" points="0.78 18.24 22.95 18.24 22.95 24.77 2.15 24.77 0.78 18.24"/></g></svg>